# xmcd
# 
# Track frame offsets:
#     150
#     16920
#     41450
#     60475
# 
# Disc length: 960
# 
# Revision: 0
# Processed by: cddbd v1.5.2PL0 Copyright (c) Steve Scherf et al.
# Submitted via: fre:ac v1.0.17
# 
DISCID=2503be04
DTITLE=Tex Perkins - Splendid Lie
DYEAR=0
DGENRE=
TTITLE0=Splendid Lie
TTITLE1=The Good Listener
TTITLE2=Far Be It From Me
TTITLE3=When She's Gone
EXTD=
EXTT0=
EXTT1=
EXTT2=
EXTT3=
PLAYORDER=
